<?xml version="1.0" encoding="UTF-8" standalone="no"?>
<!-- Created with Inkscape (http://www.inkscape.org/) -->

<svg
   xmlns:dc="http://purl.org/dc/elements/1.1/"
   xmlns:cc="http://creativecommons.org/ns#"
   xmlns:rdf="http://www.w3.org/1999/02/22-rdf-syntax-ns#"
   xmlns:svg="http://www.w3.org/2000/svg"
   xmlns="http://www.w3.org/2000/svg"
   xmlns:sodipodi="http://sodipodi.sourceforge.net/DTD/sodipodi-0.dtd"
   xmlns:inkscape="http://www.inkscape.org/namespaces/inkscape"
   width="79.375mm"
   height="79.375mm"
   viewBox="0 0 281.24999 281.25"
   id="svg4272"
   version="1.1"
   inkscape:version="0.92.5 (2060ec1f9f, 2020-04-08)"
   sodipodi:docname="Windows_Logo_1995.svg">
  <defs
     id="defs4274" />
  <sodipodi:namedview
     id="base"
     pagecolor="#ffffff"
     bordercolor="#666666"
     borderopacity="1.0"
     inkscape:pageopacity="0.0"
     inkscape:pageshadow="2"
     inkscape:zoom="0.56332677"
     inkscape:cx="42.50466"
     inkscape:cy="160.07228"
     inkscape:document-units="px"
     inkscape:current-layer="layer1"
     showgrid="false"
     fit-margin-top="0"
     fit-margin-left="0"
     fit-margin-right="0"
     fit-margin-bottom="0"
     inkscape:window-width="1366"
     inkscape:window-height="699"
     inkscape:window-x="0"
     inkscape:window-y="0"
     inkscape:window-maximized="1"
     inkscape:snap-bbox="true"
     inkscape:bbox-paths="true"
     inkscape:bbox-nodes="true"
     inkscape:snap-bbox-edge-midpoints="true"
     inkscape:snap-bbox-midpoints="true" />
  <metadata
     id="metadata4277">
    <rdf:RDF>
      <cc:Work
         rdf:about="">
        <dc:format>image/svg+xml</dc:format>
        <dc:type
           rdf:resource="http://purl.org/dc/dcmitype/StillImage" />
        <dc:title></dc:title>
      </cc:Work>
    </rdf:RDF>
  </metadata>
  <g
     inkscape:label="Layer 1"
     inkscape:groupmode="layer"
     id="layer1"
     transform="translate(-428.4313,-184.39804)">
    <g
       id="g1056">
      <rect
         y="184.39804"
         x="428.4313"
         height="281.25"
         width="281.25"
         id="rect200"
         style="fill:#00ffff;fill-opacity:0;stroke-width:0.23227538" />
      <g
         transform="matrix(0.28124999,0,0,0.28124999,469.88447,372.16316)"
         id="g198">
        <path
           style="stroke-width:42.92582703"
           d="M 624.6319,265.8987 852.61099,-282.99392 C 752.59379,-393.78547 628.19478,-448.08661 478.81292,-445.25349 L 249.37435,108.70433 C 389.44138,90.117386 513.75456,142.91621 624.6319,265.8987 Z"
           id="path4518-2"
           inkscape:connector-curvature="0" />
        <path
           style="stroke-width:42.92582703"
           d="m 465.89222,-445.25349 -84.34925,4.97939 -28.58854,70.05497 84.34916,-7.89841 z"
           id="path4520-4"
           inkscape:connector-curvature="0" />
        <path
           style="stroke-width:42.92582703"
           d="m 432.3242,-365.8837 -83.6624,5.70915 -29.23249,70.05497 84.99312,-7.85542 z"
           id="path4522-2"
           inkscape:connector-curvature="0" />
        <path
           style="stroke-width:42.92582703"
           d="m 399.44306,-285.82695 -83.57653,4.9364 -29.36128,69.4111 85.03604,-6.4818 z"
           id="path4524-0"
           inkscape:connector-curvature="0" />
        <path
           style="stroke-width:42.92582703"
           d="m 366.60479,-205.8132 -84.39217,5.02229 -28.54564,69.3252 84.34928,-7.16865 z"
           id="path4526-9"
           inkscape:connector-curvature="0" />
        <path
           style="stroke-width:42.92582703"
           d="m 333.72363,-127.21607 -84.34928,5.02239 -28.63153,69.368107 85.03613,-7.168653 z"
           id="path4528-6"
           inkscape:connector-curvature="0" />
        <path
           style="stroke-width:42.92582703"
           d="m 300.11271,-45.742811 -84.39218,5.065192 -28.54564,70.054964 84.34919,-7.168562 z"
           id="path4530-0"
           inkscape:connector-curvature="0" />
        <path
           style="stroke-width:42.92582703"
           d="m 266.45889,34.356737 -83.61953,5.065283 -29.27539,69.96907 84.99305,-7.89831 z"
           id="path4532-1"
           inkscape:connector-curvature="0" />
        <path
           style="stroke-width:42.92582703"
           d="m 292.94415,-448.85927 -26.48526,63.65897 77.91038,-6.43881 26.48525,-62.84341 z"
           id="path4534-2"
           inkscape:connector-curvature="0" />
        <path
           d="m 311.531,-310.89569 25.7555,-62.88632 -77.91037,5.66625 -26.48526,63.61606 z"
           id="path4536-6"
           inkscape:connector-curvature="0"
           style="fill:#ff3300;stroke-width:42.92582703" />
        <path
           d="m 279.29369,-233.71498 26.48526,-63.61615 -78.59723,6.396 -25.7555,62.88631 z"
           id="path4538-8"
           inkscape:connector-curvature="0"
           style="fill:#ff3300;stroke-width:42.92582703" />
        <path
           style="stroke-width:42.92582703"
           d="m 194.25765,-210.7926 -27.17211,63.61606 79.36989,-6.43889 25.71251,-63.61606 z"
           id="path4540-2"
           inkscape:connector-curvature="0" />
        <path
           d="m 159.95988,-130.09209 -25.71261,63.573166 78.59724,-6.267209 25.7984,-63.701867 z"
           id="path4542-0"
           inkscape:connector-curvature="0"
           style="fill:#02a5ff;stroke-width:42.92582703" />
        <path
           d="M 127.80847,-52.825573 102.09586,10.747592 180.77889,4.3086928 207.17826,-59.307372 Z"
           id="path4544-0"
           inkscape:connector-curvature="0"
           style="fill:#02a5ff;stroke-width:42.92582703" />
        <path
           style="stroke-width:42.92582703"
           d="M 147.12507,84.322441 173.52444,21.43613 95.699952,27.102285 69.214693,90.031587 Z"
           id="path4546-0"
           inkscape:connector-curvature="0" />
        <path
           style="stroke-width:42.92582703"
           d="m 289.38127,-483.8438 -65.76243,2.87602 -23.56624,56.4904 66.44919,-3.64876 z"
           id="path4548-1"
           inkscape:connector-curvature="0" />
        <path
           d="m 190.00792,-399.53752 -23.56624,55.76066 66.44919,-3.56288 22.96528,-55.0738 z"
           id="path4550-3"
           inkscape:connector-curvature="0"
           style="fill:#ff3300;stroke-width:42.92582703" />
        <path
           d="m 157.85651,-323.00075 -22.87948,56.44741 66.44919,-3.56278 22.87948,-55.07389 z"
           id="path4552-5"
           inkscape:connector-curvature="0"
           style="fill:#ff3300;stroke-width:42.92582703" />
        <path
           style="stroke-width:42.92582703"
           d="m 190.73768,-245.13327 -66.44919,2.10337 -22.87939,56.4904 66.53499,-3.51997 z"
           id="path4554-3"
           inkscape:connector-curvature="0" />
        <path
           d="m 90.677569,-161.47085 -23.566245,56.44741 67.178946,-3.51988 22.83649,-55.71775 z"
           id="path4556-1"
           inkscape:connector-curvature="0"
           style="fill:#02a5ff;stroke-width:42.92582703" />
        <path
           d="m 59.170018,-84.290224 -22.879483,55.030896 65.762425,-2.790132 23.56625,-55.760649 z"
           id="path4558-2"
           inkscape:connector-curvature="0"
           style="fill:#02a5ff;stroke-width:42.92582703" />
        <path
           style="stroke-width:42.92582703"
           d="M 69.214693,47.964289 92.094176,-7.7963609 26.331751,-4.9633294 2.7655058,50.668621 Z"
           id="path4560-8"
           inkscape:connector-curvature="0" />
        <path
           style="stroke-width:42.92582703"
           d="m 157.85651,-504.61992 -16.39768,40.04982 52.84172,-2.18926 17.17034,-40.69368 z"
           id="path4562-4"
           inkscape:connector-curvature="0" />
        <path
           d="m 124.28849,-423.83351 -16.44058,40.00682 52.88462,-2.06037 17.17034,-40.77958 z"
           id="path4564-1"
           inkscape:connector-curvature="0"
           style="fill:#ff3300;stroke-width:42.92582703" />
        <path
           d="m 92.094176,-347.29675 -16.440583,40.04973 53.657277,-1.45941 17.08445,-42.15319 z"
           id="path4566-4"
           inkscape:connector-curvature="0"
           style="fill:#ff3300;stroke-width:42.92582703" />
        <path
           style="stroke-width:42.92582703"
           d="m 112.8273,-270.11612 -53.657282,2.87602 -17.127346,40.04982 53.65728,-1.33072 z"
           id="path4568-2"
           inkscape:connector-curvature="0" />
        <path
           d="m 25.644989,-186.5395 -17.1274377,40.77948 54.3441337,-2.14627 16.440584,-41.50923 z"
           id="path4570-3"
           inkscape:connector-curvature="0"
           style="fill:#02a5ff;stroke-width:42.92582703" />
        <path
           d="M -6.5065164,-109.27308 -22.99,-68.536403 30.667281,-70.682764 47.064964,-112.1491 Z"
           id="path4572-3"
           inkscape:connector-curvature="0"
           style="fill:#02a5ff;stroke-width:42.92582703" />
        <path
           style="stroke-width:42.92582703"
           d="M -40.074446,-29.302228 -56.60092,11.477346 -2.9865397,9.3309848 14.183797,-32.092451 Z"
           id="path4574-8"
           inkscape:connector-curvature="0" />
        <path
           style="stroke-width:42.92582703"
           d="m 134.29027,-528.14326 14.29431,-34.34068 -40.73667,5.75205 -13.607465,33.56802 z"
           id="path4576-1"
           inkscape:connector-curvature="0" />
        <path
           d="m 74.194086,-475.98839 -14.294315,33.65382 40.693679,-5.02229 14.29432,-34.98454 z"
           id="path4578-4"
           inkscape:connector-curvature="0"
           style="fill:#ff3300;stroke-width:42.92582703" />
        <path
           d="m 42.042672,-398.72187 -14.294314,33.56793 40.736582,-4.97939 15.024068,-34.98454 z"
           id="path4580-1"
           inkscape:connector-curvature="0"
           style="fill:#ff3300;stroke-width:42.92582703" />
        <path
           style="stroke-width:42.92582703"
           d="m 9.1614138,-318.75111 -14.2942228,33.65382 40.006828,-5.02229 15.024068,-35.07043 z"
           id="path4582-2"
           inkscape:connector-curvature="0" />
        <path
           d="m -24.406515,-237.92181 -13.521661,33.52512 39.9639283,-4.9364 14.3372137,-34.29777 z"
           id="path4584-2"
           inkscape:connector-curvature="0"
           style="fill:#02a5ff;stroke-width:42.92582703" />
        <path
           d="m -56.60092,-160.784 -13.521661,33.56793 39.96402,-4.97939 14.294223,-35.02744 z"
           id="path4586-9"
           inkscape:connector-curvature="0"
           style="fill:#02a5ff;stroke-width:42.92582703" />
        <path
           style="stroke-width:42.92582703"
           d="m -90.168941,-80.727348 -12.877709,32.924067 40.049822,-4.378429 14.294314,-34.984537 z"
           id="path4588-2"
           inkscape:connector-curvature="0" />
        <path
           style="stroke-width:42.92582703"
           d="m 59.170018,-598.24113 -9.958785,22.87949 30.649099,-0.72994 10.774337,-25.02575 z"
           id="path4590-5"
           inkscape:connector-curvature="0" />
        <path
           d="m 26.331751,-518.18448 -10.001684,23.60924 30.048044,-0.72994 9.958784,-24.98285 z"
           id="path4592-2"
           inkscape:connector-curvature="0"
           style="fill:#ff3300;stroke-width:42.92582703" />
        <path
           d="m -5.8196627,-441.73361 -9.3149223,23.60924 h 29.275391 l 10.001776,-25.02575 z"
           id="path4594-9"
           inkscape:connector-curvature="0"
           style="fill:#ff3300;stroke-width:42.92582703" />
        <path
           style="stroke-width:42.92582703"
           d="m -38.743729,-361.59106 -9.958785,23.52334 h 30.005144 l 10.6885383,-25.02575 z"
           id="path4596-1"
           inkscape:connector-curvature="0" />
        <path
           d="m -72.31175,-280.1608 -10.001776,22.87949 30.005236,-0.68695 9.958784,-23.56624 z"
           id="path4598-2"
           inkscape:connector-curvature="0"
           style="fill:#02a5ff;stroke-width:42.92582703" />
        <path
           d="m -104.46316,-202.93718 -10.00178,23.56624 30.048136,-0.68695 10.645547,-24.38188 z"
           id="path4600-1"
           inkscape:connector-curvature="0"
           style="fill:#02a5ff;stroke-width:42.92582703" />
        <path
           style="stroke-width:42.92582703"
           d="m -138.07408,-122.88054 -9.31493,23.652139 30.04805,-0.815919 10.00168,-25.02575 z"
           id="path4602-1"
           inkscape:connector-curvature="0" />
        <path
           d="m 514.52721,-177.26757 72.888,-175.09446 c -35.71429,-12.19095 -82.93268,-17.12744 -141.48346,-15.75373 l -72.24419,174.45051 c 53.61435,-2.18917 100.83273,3.64877 140.83965,16.39768 z"
           id="path4604-0"
           inkscape:connector-curvature="0"
           style="fill:#ff3300;stroke-width:42.92582703" />
        <path
           d="m 755.38401,-268.69961 c -32.88117,-33.61092 -71.51447,-57.17716 -115.77094,-71.51438 l -74.34759,179.42999 50.0086,20.73313 c 19.23081,7.81251 41.42344,23.60923 67.13604,47.905231 z"
           id="path4606-4"
           inkscape:connector-curvature="0"
           style="fill:#66cc33;stroke-width:42.92582703" />
        <path
           d="M 661.03305,-42.051235 C 628.10889,-75.018202 588.83181,-97.167931 543.8026,-109.27308 L 472.33112,62.945365 c 41.42344,14.337214 80.09955,37.903455 117.27335,69.325215 z"
           id="path4608-8"
           inkscape:connector-curvature="0"
           style="fill:#ffcc00;stroke-width:42.92582703" />
        <path
           d="m 423.00937,44.358513 69.28222,-167.239053 c -43.6126,-14.29431 -90.70226,-20.00346 -140.75376,-16.44058 L 280.7961,30.149998 c 42.15319,-2.27506 89.32867,2.833123 142.21327,14.208515 z"
           id="path4610-7"
           inkscape:connector-curvature="0"
           style="fill:#02a5ff;stroke-width:42.92582703" />
      </g>
    </g>
  </g>
</svg>
